<?xml version="1.0" encoding="utf-8"?>
<!-- Generator: Adobe Illustrator 22.0.1, SVG Export Plug-In . SVG Version: 6.00 Build 0)  -->
<svg version="1.1" id="Layer_1" xmlns="http://www.w3.org/2000/svg" xmlns:xlink="http://www.w3.org/1999/xlink" x="0px" y="0px"
	 viewBox="0 0 214.5 178.8" style="enable-background:new 0 0 214.5 178.8;" xml:space="preserve">
<style type="text/css">
	.st0{fill:#BAB6B0;}
	.st1{fill:none;stroke:#A29C98;stroke-width:0.5372;stroke-miterlimit:10;stroke-dasharray:1.343;}
	.st2{fill:url(#SVGID_1_);}
	.st3{fill:url(#SVGID_2_);}
	.st4{fill:#070606;}
	.st5{fill:#37997F;}
</style>
<g>
	<g>
		<g>
			<polygon class="st0" points="155.7,127.7 55.6,127.7 55.6,107 60.8,107 60.8,122.5 150.5,122.5 150.5,107 155.7,107 			"/>
		</g>
		<g>
			<polygon class="st0" points="155.7,47.1 150.5,47.1 150.5,32.8 60.8,32.8 60.8,47.1 55.6,47.1 55.6,27.6 155.7,27.6 			"/>
		</g>
	</g>
	<g>
		<polyline class="st1" points="58.2,110.4 58.2,125.1 153.1,125.1 153.1,110.4 		"/>
		<polyline class="st1" points="153.1,46.3 153.1,30.2 58.2,30.2 58.2,47.1 		"/>
	</g>
	<g>
		<g>
			<linearGradient id="SVGID_1_" gradientUnits="userSpaceOnUse" x1="148.327" y1="37.477" x2="148.327" y2="106.3281">
				<stop  offset="0" style="stop-color:#399B7F"/>
				<stop  offset="0.4479" style="stop-color:#37997F"/>
				<stop  offset="1" style="stop-color:#2F59A5"/>
			</linearGradient>
			<path class="st2" d="M158.1,49.9L174.4,98c1.3,3.8,3.5,5.2,5.9,5.2v0.8c0,0-4.1-0.2-14.5-0.2c-10.1,0-14,0.2-14,0.2v-0.8
				c3.2,0,4.1-1.6,4.1-3.7c0-1.6-0.6-3.5-1.3-5.9l-3.3-11.2h-15.2l-3.4,10.4c-0.8,2.4-1.1,4.3-1.1,5.4c0,3.8,2.3,4.9,6.8,4.9v0.8
				c0,0-4.1-0.2-9.1-0.2c-3.8,0-13,0.2-13,0.2v-0.8c4.1,0,14-3.4,15.5-10.4l13.4-39L158.1,49.9z M151.1,81.6l-6.8-22.8l-7.8,22.8
				H151.1z"/>
			<linearGradient id="SVGID_2_" gradientUnits="userSpaceOnUse" x1="53.9324" y1="37.6696" x2="53.9324" y2="106.5203">
				<stop  offset="0" style="stop-color:#399B7F"/>
				<stop  offset="0.4479" style="stop-color:#37997F"/>
				<stop  offset="1" style="stop-color:#2F59A5"/>
			</linearGradient>
			<path class="st3" d="M59.8,103.4c-3.8,0-5.6-1.4-5.6-6.7v-35c0-5.9,1.8-9.4,5.6-9.4v-0.8c0,0-6.6,0.2-14.4,0.2
				c-7.8,0-14.4-0.2-14.4-0.2v0.8c3.8,0,5.6,1.4,5.6,6.7v35c0,5.9-1.8,9.4-5.6,9.4v0.8c0,0,1.1-0.2,14.4-0.2
				c6.7,0,18.4,0.2,30.8,0.2l0.7-5.1c-1-1.6-1.5-3.4-1.5-5.4c0-1.5,0.3-2.9,0.7-4.2c0,0,0,0-0.1,0C72.8,96.9,67.3,103.4,59.8,103.4z
				"/>
		</g>
		<path class="st0" d="M105.2,57.7c0-3.8-1.5-5.5-4-5.5c-3.1,0-5.2,2.6-5.2,6.5c0,3.7,1.6,6.2,4.7,10.1L113.4,85
			c1.4-2.1,2.8-5.1,2.8-7.5c0-2.6-1.6-4.6-6.4-4.6v-0.6c0,0,6.3,0.3,9.9,0.3c4.3,0,8.7-0.3,8.7-0.3v0.6c-8.6,0-10.7,7.2-14.6,12.7
			l5.1,6.7c2.1,2.6,5.2,6,8.3,6c0.7,0,1.3-0.1,2.1-0.8l0.3,0.6c0,0-4.9,5.8-13,5.8c-6.8,0-9.6-1.9-13.5-6.6
			c-5.1,4.5-10,6.6-15.7,6.6c-8,0-12.1-4.7-12.1-10.3c0-7.9,7.2-12.3,14.7-13.4c-4.3-5.2-7.2-9.4-7.2-14.5
			c0-9.2,10.2-14.1,19.1-14.1c9.2,0,13.5,3.7,13.5,8c0,4.1-3.3,6.1-6.9,6.1c-1.8,0-4.2-0.6-5.5-1.7C104.4,62.4,105.2,60,105.2,57.7z
			 M102.7,96.8L90.4,80.7c-0.9,1.4-1.3,3.4-1.3,5.5c0,5.8,3.3,12.6,9.1,12.6C99.8,98.8,101.7,97.7,102.7,96.8z"/>
	</g>
</g>
<g>
	<path class="st4" d="M35.8,146.5v-8.9h1v8.3l4.2-0.1v0.6H35.8z"/>
	<path class="st4" d="M42.8,146.5v-8.9h5.2v0.6l-4.2-0.1v3.6l4.1,0v0.6l-4.1,0v3.7l4.2-0.1v0.6H42.8z"/>
	<path class="st4" d="M56.5,146.5l-1.4-3.2h-3.8l-1.4,3.2h-0.8l4.3-9.2l4.3,9.2H56.5z M53.1,139.1l-1.6,3.7h3.3L53.1,139.1z"/>
	<path class="st4" d="M61,138.2v8.3h-1v-8.3l-2.6,0.1v-0.6h6.2v0.6L61,138.2z"/>
	<path class="st4" d="M70.9,146.5v-4.3h-4.7v4.3h-1v-8.9h1v4h4.7v-4h1v8.9H70.9z"/>
	<path class="st4" d="M74.5,146.5v-8.9h5.2v0.6l-4.2-0.1v3.6l4.1,0v0.6l-4.1,0v3.7l4.2-0.1v0.6H74.5z"/>
	<path class="st4" d="M87.3,146.5l-3.9-4.2h1.3c1.1,0,2.2-0.7,2.2-2.1c0-1.4-1-2.1-2.2-2.1H83v8.3h-1v-8.9h2.9
		c1.8,0,3.1,1.1,3.1,2.6c0,1.4-1.3,2.5-2.9,2.5l3.5,3.8H87.3z"/>
	<path class="st4" d="M92.5,146.6c-1.7,0-2.9-1.1-3-2.3l0.8-0.2c0.1,1.1,1.1,2,2.2,2c1.1,0,2.1-0.8,2.1-1.9c0-1-0.7-1.5-2.3-1.9
		c-1.9-0.4-2.6-1.2-2.6-2.3c0-1.4,1.3-2.5,2.8-2.5c1.6,0,2.6,1,2.8,2l-0.8,0.2c-0.1-0.8-1.1-1.6-2-1.6c-1,0-1.8,0.7-1.8,1.6
		c0,0.9,0.6,1.2,2.1,1.6c2,0.5,2.7,1.3,2.7,2.6C95.5,145.5,94.2,146.6,92.5,146.6z"/>
	<path class="st5" d="M105,149.1v-13h0.9v13H105z"/>
	<path class="st4" d="M121.8,146.5l-1.4-3.2h-3.8l-1.4,3.2h-0.8l4.3-9.2l4.3,9.2H121.8z M118.5,139.1l-1.6,3.7h3.3L118.5,139.1z"/>
	<path class="st4" d="M127.3,142.8h-2.1v3.8h-1v-8.9h3.1c1.6,0,2.8,1.1,2.8,2.6C130.1,141.7,128.9,142.8,127.3,142.8z M127.1,138.2
		h-1.8v4h1.8c1.1,0,2-0.8,2-2S128.1,138.2,127.1,138.2z"/>
	<path class="st4" d="M135.1,142.8H133v3.8h-1v-8.9h3.1c1.6,0,2.8,1.1,2.8,2.6C137.9,141.7,136.7,142.8,135.1,142.8z M134.8,138.2
		H133v4h1.8c1.1,0,2-0.8,2-2S135.9,138.2,134.8,138.2z"/>
	<path class="st4" d="M145,146.5l-1.4-3.2h-3.8l-1.4,3.2h-0.8l4.3-9.2l4.3,9.2H145z M141.6,139.1l-1.6,3.7h3.3L141.6,139.1z"/>
	<path class="st4" d="M152.7,146.5l-3.9-4.2h1.3c1.1,0,2.2-0.7,2.2-2.1c0-1.4-1-2.1-2.2-2.1h-1.8v8.3h-1v-8.9h2.9
		c1.8,0,3.1,1.1,3.1,2.6c0,1.4-1.3,2.5-2.9,2.5l3.5,3.8H152.7z"/>
	<path class="st4" d="M155.5,146.5v-8.9h5.2v0.6l-4.2-0.1v3.6l4.1,0v0.6l-4.1,0v3.7l4.2-0.1v0.6H155.5z"/>
	<path class="st4" d="M163.1,146.5v-8.9h1v8.3l4.2-0.1v0.6H163.1z"/>
	<path class="st4" d="M172.4,146.6c-1.7,0-2.9-1.1-3-2.3l0.8-0.2c0.1,1.1,1.1,2,2.2,2c1.1,0,2.1-0.8,2.1-1.9c0-1-0.7-1.5-2.3-1.9
		c-1.9-0.4-2.6-1.2-2.6-2.3c0-1.4,1.3-2.5,2.8-2.5c1.6,0,2.6,1,2.8,2l-0.8,0.2c-0.1-0.8-1.1-1.6-2-1.6c-1,0-1.8,0.7-1.8,1.6
		c0,0.9,0.6,1.2,2.1,1.6c2,0.5,2.7,1.3,2.7,2.6C175.4,145.5,174.1,146.6,172.4,146.6z"/>
</g>
<g>
	<path class="st5" d="M120.8,164.7v-13h0.9v13H120.8z"/>
	<path class="st4" d="M35.9,162.8l-1.4-3.2h-3.8l-1.4,3.2h-0.8l4.3-9.2l4.3,9.2H35.9z M32.5,155.4l-1.6,3.7h3.3L32.5,155.4z"/>
	<path class="st4" d="M42.1,153.7c1.4,0,2.3,0.5,3,1l-0.6,0.7c-0.7-0.7-1.6-1.2-2.5-1.2c-1.9,0-3.3,1.8-3.3,4c0,2.3,1.5,4,3.3,4
		c1.4,0,2.4-0.8,2.9-1.2l0.3,0.4c-0.6,0.7-1.8,1.4-3.2,1.4c-2.4,0-4.3-1.9-4.3-4.5C37.7,155.7,39.7,153.7,42.1,153.7z"/>
	<path class="st4" d="M50.6,153.7c1.4,0,2.3,0.5,3,1l-0.6,0.7c-0.7-0.7-1.6-1.2-2.5-1.2c-1.9,0-3.3,1.8-3.3,4c0,2.3,1.5,4,3.3,4
		c1.4,0,2.4-0.8,2.9-1.2l0.3,0.4c-0.6,0.7-1.8,1.4-3.2,1.4c-2.4,0-4.3-1.9-4.3-4.5C46.2,155.7,48.3,153.7,50.6,153.7z"/>
	<path class="st4" d="M55.7,162.7v-8.9H61v0.6l-4.2-0.1v3.6l4.1,0v0.6l-4.1,0v3.7L61,162v0.6H55.7z"/>
	<path class="st4" d="M65.6,162.8c-1.7,0-2.9-1.1-3-2.3l0.8-0.2c0.1,1.1,1.1,2,2.2,2c1.1,0,2.1-0.8,2.1-1.9c0-1-0.7-1.5-2.3-1.9
		c-1.9-0.4-2.6-1.2-2.6-2.3c0-1.4,1.3-2.5,2.8-2.5c1.6,0,2.6,1,2.8,2l-0.8,0.2c-0.1-0.8-1.1-1.6-2-1.6c-1,0-1.8,0.7-1.8,1.6
		c0,0.9,0.6,1.2,2.1,1.6c2,0.5,2.7,1.3,2.7,2.6C68.7,161.7,67.3,162.8,65.6,162.8z"/>
	<path class="st4" d="M73.2,162.8c-1.7,0-2.9-1.1-3-2.3l0.8-0.2c0.1,1.1,1.1,2,2.2,2c1.1,0,2.1-0.8,2.1-1.9c0-1-0.7-1.5-2.3-1.9
		c-1.9-0.4-2.6-1.2-2.6-2.3c0-1.4,1.3-2.5,2.8-2.5c1.6,0,2.6,1,2.8,2l-0.8,0.2c-0.1-0.8-1.1-1.6-2-1.6c-1,0-1.8,0.7-1.8,1.6
		c0,0.9,0.6,1.2,2.1,1.6c2,0.5,2.7,1.3,2.7,2.6C76.2,161.7,74.9,162.8,73.2,162.8z"/>
	<path class="st4" d="M82.4,162.8c-2.5,0-4.6-2-4.6-4.5c0-2.5,2-4.6,4.6-4.6c2.5,0,4.6,2,4.6,4.6C86.9,160.7,84.9,162.8,82.4,162.8z
		 M82.4,154.2c-1.9,0-3.5,1.8-3.5,4c0,2.2,1.5,4,3.5,4c1.9,0,3.5-1.8,3.5-4C85.8,156,84.3,154.2,82.4,154.2z"/>
	<path class="st4" d="M94.2,162.7l-3.9-4.2h1.3c1.1,0,2.2-0.7,2.2-2.1c0-1.4-1-2.1-2.2-2.1h-1.8v8.3h-1v-8.9h2.9
		c1.8,0,3.1,1.1,3.1,2.6c0,1.4-1.3,2.5-2.9,2.5l3.5,3.8H94.2z"/>
	<path class="st4" d="M97.2,162.7v-8.9h1v8.9H97.2z"/>
	<path class="st4" d="M101,162.7v-8.9h5.2v0.6l-4.2-0.1v3.6l4.1,0v0.6l-4.1,0v3.7l4.2-0.1v0.6H101z"/>
	<path class="st4" d="M110.8,162.8c-1.7,0-2.9-1.1-3-2.3l0.8-0.2c0.1,1.1,1.1,2,2.2,2c1.1,0,2.1-0.8,2.1-1.9c0-1-0.7-1.5-2.3-1.9
		c-1.9-0.4-2.6-1.2-2.6-2.3c0-1.4,1.3-2.5,2.8-2.5c1.6,0,2.6,1,2.8,2l-0.8,0.2c-0.1-0.8-1.1-1.6-2-1.6c-1,0-1.8,0.7-1.8,1.6
		c0,0.9,0.6,1.2,2.1,1.6c2,0.5,2.7,1.3,2.7,2.6C113.9,161.7,112.6,162.8,110.8,162.8z"/>
	<path d="M134.8,154.4l-2.6-0.1v8.3h-1v-8.3l-2.6,0.1v-0.6h6.1V154.4z"/>
	<path d="M141.6,162.6h-5.2v-8.8h5.2v0.6l-4.2-0.1v3.5l4,0v0.6l-4,0v3.6l4.2-0.1V162.6z"/>
	<path d="M150.6,162.6h-1.3l-2.7-3.9l-2.8,3.9H143l3.3-4.4l-3.1-4.4h1.2l2.4,3.5l2.5-3.5h0.9l-3.1,4L150.6,162.6z"/>
	<path d="M157.5,154.4l-2.6-0.1v8.3h-1v-8.3l-2.6,0.1v-0.6h6.1V154.4z"/>
	<path d="M160.3,162.6h-1v-8.8h1V162.6z"/>
	<path d="M168.2,162.6H163v-8.8h1v8.3l4.2-0.1V162.6z"/>
	<path d="M175.1,162.6h-5.2v-8.8h5.2v0.6l-4.2-0.1v3.5l4,0v0.6l-4,0v3.6l4.2-0.1V162.6z"/>
	<path d="M181.9,162c-0.6,0.5-1.3,0.7-2.2,0.7c-0.8,0-1.5-0.2-2.1-0.7c-0.5-0.5-0.9-1-1-1.6l0.8-0.2c0,0.5,0.3,1,0.7,1.4
		c0.5,0.4,1,0.6,1.5,0.6c0.6,0,1.1-0.2,1.5-0.5c0.4-0.4,0.6-0.8,0.6-1.3c0-1-0.6-1.5-2.2-1.8c-1.8-0.4-2.5-1.1-2.5-2.3
		c0-0.7,0.3-1.3,0.8-1.8c0.5-0.5,1.2-0.7,2-0.7c0.7,0,1.4,0.2,1.9,0.6c0.5,0.4,0.8,0.8,0.9,1.4l-0.8,0.2c-0.1-0.4-0.3-0.8-0.7-1.1
		c-0.4-0.3-0.8-0.5-1.3-0.5c-0.5,0-0.9,0.2-1.3,0.5c-0.4,0.3-0.5,0.7-0.5,1.1c0,0.8,0.6,1.2,2.1,1.6c2,0.5,2.7,1.3,2.7,2.6
		C182.8,160.9,182.5,161.5,181.9,162z"/>
</g>
</svg>
